<svg xmlns="http://www.w3.org/2000/svg" width="512" height="512" viewBox="0 0 512 512" >
  <path fill="#447b41" d="M768.784-219.26v55.97c0 3.374-.418 6.79-2.836 7.53l-3.549 1.083v3.472h26.405v-3.472l-3.55-1.084c-2.418-.738-2.836-4.155-2.836-7.529v-55.97h-13.634z" transform="matrix(4.01095 0 0 4.01095 -2854.253 1110.42)"/>
  <path fill="#447b41" d="M791.074-274.196a9.218 9.218 0 0 0-4.825 1.231l-10.671 6.161-10.66-6.154a9.218 9.218 0 0 0-9.217 0l-15.091 8.713a9.218 9.218 0 0 0-4.61 7.982v12.338l-10.66 6.155a9.218 9.218 0 0 0-4.608 7.982v17.426a9.218 9.218 0 0 0 4.608 7.983l10.668 6.16v12.31a9.218 9.218 0 0 0 4.61 7.982l15.09 8.713a9.218 9.218 0 0 0 9.219 0l10.628-6.136 10.69 6.171a9.218 9.218 0 0 0 9.217 0l15.092-8.713a9.218 9.218 0 0 0 4.608-7.982v-12.337l10.661-6.156a9.218 9.218 0 0 0 4.609-7.982v-17.426a9.218 9.218 0 0 0-4.609-7.983l-10.657-6.153v-12.358a9.218 9.218 0 0 0-4.609-7.983l-15.091-8.713a9.219 9.219 0 0 0-4.392-1.231z" transform="matrix(4.01095 0 0 4.01095 -2854.253 1110.42)"/>
  <path fill="#4aa539" d="m745.422-238.501-15.09 8.712v17.426l15.09 8.712v17.427l15.092 8.714 15.09-8.714v-17.425l-15.09-8.714v-17.426l-15.092-8.712z" transform="matrix(4.01095 0 0 4.01095 -2854.253 1110.42)"/>
  <path fill="#9ecc54" d="m760.514-264.642-15.06 8.714-.032 17.427 15.092 8.712v17.426l15.09 8.712 15.093-8.712v-17.426l-15.092-8.712v-17.427l-15.09-8.714z" transform="matrix(4.01095 0 0 4.01095 -2854.253 1110.42)"/>
  <path fill="#e56b6a" d="m790.697-177.51-15.092-8.714v-17.426l15.092-8.713 15.091 8.713v17.426z" transform="matrix(4.01095 0 0 4.01095 -2854.253 1110.42)"/>
  <path fill="#fe8e5f" d="m805.788-203.65-15.091-8.713v-17.426l15.091-8.713 15.092 8.713v17.426z" transform="matrix(4.01095 0 0 4.01095 -2854.253 1110.42)"/>
  <path fill="#e9de7a" d="m790.697-229.789-15.092-8.713v-17.426l15.092-8.713 15.091 8.713v17.426z" transform="matrix(4.01095 0 0 4.01095 -2854.253 1110.42)"/>
</svg>
