<svg width="132" height="24" viewBox="0 0 132 24" fill="none" xmlns="http://www.w3.org/2000/svg">
<path fill-rule="evenodd" clip-rule="evenodd" d="M51.8562 16.8287H50.068V15.8811C49.4276 16.5996 48.299 17.0508 47.2376 17.0508C44.6987 17.0508 42.6377 15.0101 42.6377 12.4962C42.6377 9.98281 44.6987 7.9415 47.2376 7.9415C48.299 7.9415 49.3682 8.33753 50.068 9.03756V8.16415H51.8562V16.8287ZM47.2958 9.76194C48.8609 9.76194 50.0926 10.8711 50.0926 12.4962C50.0926 14.1218 48.8609 15.2405 47.2958 15.2405C45.7301 15.2405 44.5404 14.0464 44.5404 12.4962C44.5404 10.9465 45.7301 9.76194 47.2958 9.76194Z" fill="#005FF9"/>
<path fill-rule="evenodd" clip-rule="evenodd" d="M29.2898 16.8287H27.5022V8.16415H29.2898V8.76919C29.6867 8.39987 30.4309 7.94328 31.4635 7.9415C32.7318 7.9415 33.6774 8.46993 34.3256 9.32018C35.0344 8.47884 36.2026 7.9415 37.3935 7.9415C39.6272 7.9415 41.1497 9.43537 41.1497 11.7629V16.8287H39.3621V11.7629C39.3621 10.6318 38.4327 9.71206 37.2909 9.71206C36.1486 9.71206 35.2197 10.6318 35.2197 11.7629V16.8287H33.4322V11.7629C33.4322 10.6318 32.5027 9.71206 31.361 9.71206C30.2186 9.71206 29.2898 10.6318 29.2898 11.7629V16.8287Z" fill="#005FF9"/>
<path d="M15.4806 12.3462C15.4806 13.922 14.1859 15.2039 12.5944 15.2039C11.003 15.2039 9.70831 13.922 9.70831 12.3462C9.70831 10.7704 11.003 9.48847 12.5944 9.48847C14.1859 9.48847 15.4806 10.7704 15.4806 12.3462ZM12.5944 2.84619C7.30431 2.84619 3 7.10813 3 12.3462C3 17.5843 7.30431 21.8462 12.5944 21.8462C14.5325 21.8462 16.4016 21.275 17.9991 20.1938L18.0267 20.1748L16.7338 18.6868L16.7123 18.7011C15.4824 19.4843 14.0582 19.8987 12.5944 19.8987C8.38848 19.8987 4.96686 16.5108 4.96686 12.3462C4.96686 8.18163 8.38848 4.79369 12.5944 4.79369C16.8004 4.79369 20.222 8.18163 20.222 12.3462C20.222 12.8859 20.1615 13.4322 20.0421 13.9695C19.8011 14.9498 19.1079 15.2502 18.5874 15.2104C18.0639 15.1683 17.4516 14.799 17.4474 13.8953V13.2065V12.3462C17.4474 9.69629 15.2707 7.54097 12.5944 7.54097C9.91819 7.54097 7.74145 9.69629 7.74145 12.3462C7.74145 14.9961 9.91819 17.1514 12.5944 17.1514C13.8945 17.1514 15.1136 16.6479 16.0329 15.7329C16.5671 16.5565 17.4384 17.073 18.4297 17.1514C18.5148 17.1585 18.6018 17.1621 18.6881 17.1621C19.3855 17.1621 20.0775 16.9311 20.6352 16.5113C21.2103 16.0791 21.6396 15.4539 21.8771 14.7028C21.9148 14.5817 21.9844 14.3038 21.985 14.302L21.9868 14.2919C22.1265 13.6893 22.1889 13.0884 22.1889 12.3462C22.1889 7.10813 17.8846 2.84619 12.5944 2.84619" fill="#FF9E00"/>
<path fill-rule="evenodd" clip-rule="evenodd" d="M67.7383 11.4625C66.2386 11.0499 65.7846 10.75 65.8182 10.3623C65.8494 10.0013 66.2901 9.62605 67.3209 9.62783C67.9698 9.62902 68.6959 9.76795 69.5061 10.3825L70.5819 9.02577C69.8101 8.4243 68.7133 7.95286 67.3815 7.93624C66.4311 7.92495 65.4134 8.18383 64.8168 8.71939C64.3017 9.18192 63.9473 9.85227 63.9683 10.5315C63.9929 11.3153 64.2963 11.8847 64.9541 12.3537C65.4386 12.6993 66.7387 13.1577 67.7647 13.4225C68.919 13.72 69.2584 14.0726 69.1679 14.5304C69.0695 15.0292 68.3422 15.2809 67.5986 15.2839C66.7513 15.2875 65.7091 15.0351 64.7838 14.2003C64.7832 14.2003 64.7826 14.1997 64.7826 14.1991L63.6343 15.5932C64.3047 16.247 65.7714 17.0455 67.2928 17.0455C68.2462 17.0455 69.217 16.8472 69.8341 16.4429C70.5231 15.991 70.935 15.3415 70.992 14.5726C71.0484 13.8037 70.8229 12.9843 69.9438 12.3715C69.5121 12.0699 68.6048 11.7012 67.7383 11.4625Z" fill="#005FF9"/>
<path fill-rule="evenodd" clip-rule="evenodd" d="M53.6685 19.8768L55.4566 19.8733V15.8749C56.0971 16.5934 57.2256 17.0452 58.287 17.0452C60.8259 17.0452 62.8869 15.0045 62.8869 12.4906C62.8869 9.97663 60.8259 7.93591 58.287 7.93591C57.2256 7.93591 56.1564 8.33135 55.4566 9.03138V8.15798H53.6685V19.8768ZM58.2288 9.75635C56.6637 9.75635 55.432 10.8655 55.432 12.4906C55.432 14.1157 56.6637 15.2343 58.2288 15.2343C59.7945 15.2343 60.9842 14.0403 60.9842 12.4906C60.9842 10.9403 59.7945 9.75635 58.2288 9.75635Z" fill="#005FF9"/>
<rect x="79" width="53" height="24" rx="4" fill="#005FF9"/>
<path d="M90.35 17V6.5H94.775C95.305 6.5 95.775 6.575 96.185 6.725C96.605 6.875 96.96 7.075 97.25 7.325C97.54 7.575 97.76 7.87 97.91 8.21C98.07 8.54 98.15 8.895 98.15 9.275C98.15 9.695 98.075 10.04 97.925 10.31C97.785 10.58 97.63 10.8 97.46 10.97C97.25 11.17 97.015 11.325 96.755 11.435V11.465C97.115 11.585 97.435 11.755 97.715 11.975C97.955 12.165 98.175 12.425 98.375 12.755C98.575 13.075 98.675 13.49 98.675 14C98.675 14.41 98.59 14.8 98.42 15.17C98.26 15.53 98.025 15.845 97.715 16.115C97.405 16.385 97.025 16.6 96.575 16.76C96.135 16.92 95.635 17 95.075 17H90.35ZM94.925 15.05C95.375 15.05 95.725 14.935 95.975 14.705C96.225 14.465 96.35 14.155 96.35 13.775C96.35 13.395 96.225 13.09 95.975 12.86C95.725 12.62 95.375 12.5 94.925 12.5H92.6V15.05H94.925ZM94.625 10.55C95.005 10.55 95.3 10.45 95.51 10.25C95.72 10.05 95.825 9.8 95.825 9.5C95.825 9.2 95.72 8.95 95.51 8.75C95.3 8.55 95.005 8.45 94.625 8.45H92.6V10.55H94.625ZM106.931 15.95C106.701 16.17 106.431 16.37 106.121 16.55C105.851 16.7 105.521 16.84 105.131 16.97C104.741 17.09 104.291 17.15 103.781 17.15C103.241 17.15 102.731 17.05 102.251 16.85C101.781 16.65 101.366 16.375 101.006 16.025C100.656 15.675 100.381 15.27 100.181 14.81C99.9814 14.34 99.8814 13.845 99.8814 13.325C99.8814 12.795 99.9814 12.3 100.181 11.84C100.381 11.38 100.656 10.975 101.006 10.625C101.356 10.275 101.761 10 102.221 9.8C102.691 9.6 103.186 9.5 103.706 9.5C104.216 9.5 104.691 9.6 105.131 9.8C105.581 9.99 105.971 10.25 106.301 10.58C106.631 10.91 106.891 11.3 107.081 11.75C107.281 12.19 107.381 12.665 107.381 13.175C107.381 13.305 107.376 13.425 107.366 13.535C107.366 13.645 107.361 13.74 107.351 13.82C107.331 13.91 107.316 13.995 107.306 14.075H101.981C102.091 14.415 102.301 14.715 102.611 14.975C102.931 15.225 103.371 15.35 103.931 15.35C104.251 15.35 104.531 15.31 104.771 15.23C105.011 15.14 105.216 15.04 105.386 14.93C105.576 14.81 105.741 14.675 105.881 14.525L106.931 15.95ZM105.281 12.575C105.171 12.235 104.971 11.94 104.681 11.69C104.401 11.43 104.051 11.3 103.631 11.3C103.211 11.3 102.856 11.43 102.566 11.69C102.286 11.94 102.091 12.235 101.981 12.575H105.281ZM108.886 9.8C109.436 9.8 109.711 9.5 109.711 8.9V7.55H111.511V9.8H113.161V11.675H111.511V14.15C111.511 14.49 111.596 14.75 111.766 14.93C111.946 15.11 112.186 15.2 112.486 15.2C112.596 15.2 112.701 15.195 112.801 15.185C112.901 15.165 112.991 15.145 113.071 15.125C113.161 15.105 113.241 15.08 113.311 15.05V16.925C113.191 16.965 113.061 17.005 112.921 17.045C112.801 17.065 112.656 17.085 112.486 17.105C112.326 17.135 112.151 17.15 111.961 17.15C111.211 17.15 110.611 16.92 110.161 16.46C109.711 15.99 109.486 15.32 109.486 14.45V11.675H108.211V9.8H108.886ZM116.621 17.15C116.281 17.15 115.971 17.1 115.691 17C115.421 16.89 115.186 16.74 114.986 16.55C114.796 16.36 114.646 16.14 114.536 15.89C114.426 15.63 114.371 15.35 114.371 15.05C114.371 14.45 114.561 13.94 114.941 13.52C115.331 13.09 115.866 12.815 116.546 12.695L118.871 12.275L118.856 12.2C118.806 11.97 118.676 11.765 118.466 11.585C118.256 11.395 117.966 11.3 117.596 11.3C117.336 11.3 117.101 11.345 116.891 11.435C116.691 11.515 116.521 11.605 116.381 11.705C116.211 11.835 116.066 11.975 115.946 12.125L114.746 10.925C114.966 10.655 115.221 10.415 115.511 10.205C115.771 10.035 116.086 9.875 116.456 9.725C116.826 9.575 117.256 9.5 117.746 9.5C118.216 9.5 118.641 9.575 119.021 9.725C119.411 9.875 119.746 10.08 120.026 10.34C120.306 10.6 120.521 10.91 120.671 11.27C120.821 11.63 120.896 12.015 120.896 12.425V17H118.871V16.1H118.796C118.646 16.3 118.461 16.475 118.241 16.625C118.061 16.755 117.836 16.875 117.566 16.985C117.296 17.095 116.981 17.15 116.621 17.15ZM117.221 14C116.961 14.05 116.756 14.14 116.606 14.27C116.466 14.4 116.396 14.56 116.396 14.75C116.396 14.98 116.471 15.165 116.621 15.305C116.771 15.435 116.996 15.5 117.296 15.5C117.746 15.5 118.121 15.35 118.421 15.05C118.721 14.74 118.871 14.34 118.871 13.85V13.7L117.221 14Z" fill="white"/>
</svg>
